<svg width="539" height="140" viewBox="0 0 539 140" fill="none" xmlns="http://www.w3.org/2000/svg">
<g clip-path="url(#clip0_1_3)">
<path d="M70 0C108.66 0 140 31.3401 140 70C140 108.66 108.66 140 70 140C31.3401 140 0 108.66 0 70C0 31.3401 31.3401 0 70 0ZM108.133 53.5742C107.073 57.6369 105.463 61.2522 103.303 64.4209C101.144 67.5897 98.7956 69.8942 96.2588 71.334C91.5681 73.9964 85.4003 75.8273 77.7549 76.8271C73.3092 77.4073 69.3286 78.2098 65.8135 79.2334C62.2984 80.257 58.7938 81.76 55.2998 83.7432C47.9768 87.8997 43.3077 93.8591 41.293 101.621L50.5605 117.401C51.7009 113.475 53.3186 109.9 55.4141 106.676C57.5095 103.453 59.8735 101.094 62.5059 99.5996C67.1008 96.9916 73.2829 95.1834 81.0508 94.1748C86.3477 93.4149 90.6058 92.5164 93.8252 91.4785C97.0447 90.4405 100.234 89.0244 103.393 87.2314C110.812 83.0206 115.481 77.0613 117.4 69.3535L108.133 53.5742ZM89.8398 23C88.7796 27.0628 87.1694 30.6789 85.0098 33.8477C82.8502 37.0164 80.5025 39.321 77.9658 40.7607C73.2753 43.4231 67.1072 45.2541 59.4619 46.2539C55.0163 46.8341 51.0356 47.6356 47.5205 48.6592C44.0055 49.6828 40.5008 51.1858 37.0068 53.1689C29.6838 57.3255 25.0148 63.285 23 71.0469L32.2676 86.8271C33.408 82.901 35.0255 79.326 37.1211 76.1025C39.2165 72.8791 41.5805 70.5206 44.2129 69.0264C48.8077 66.4184 54.9891 64.6102 62.7568 63.6016C68.054 62.8416 72.3127 61.9423 75.5322 60.9043C78.7517 59.8664 81.9416 58.4512 85.1006 56.6582C92.5192 52.4474 97.1874 46.4878 99.1064 38.7803L89.8398 23Z" fill="white"/>
<path d="M538.244 45.9834L512.992 116.892H494.526L469.274 45.9834H487.094L503.39 98.6574H504.128L520.471 45.9834H538.244Z" fill="white"/>
<path d="M432.569 118.277C425.459 118.277 419.319 116.8 414.149 113.846C409.009 110.86 405.054 106.644 402.284 101.196C399.515 95.7182 398.13 89.2705 398.13 81.8534C398.13 74.5593 399.515 68.1578 402.284 62.6488C405.085 57.1091 408.994 52.8003 414.01 49.7227C419.027 46.6143 424.921 45.0601 431.691 45.0601C436.062 45.0601 440.186 45.7679 444.064 47.1836C447.972 48.5686 451.419 50.7229 454.404 53.6467C457.421 56.5705 459.79 60.2944 461.514 64.8186C463.237 69.3119 464.099 74.6671 464.099 80.8839V86.0082H405.978V74.744H448.08C448.049 71.5432 447.357 68.6964 446.003 66.2035C444.648 63.6799 442.756 61.6948 440.324 60.2483C437.924 58.8018 435.123 58.0785 431.922 58.0785C428.506 58.0785 425.505 58.9095 422.92 60.5714C420.335 62.2026 418.319 64.3569 416.873 67.0345C415.457 69.6813 414.734 72.5896 414.703 75.7596V85.5927C414.703 89.7168 415.457 93.2561 416.965 96.2106C418.473 99.1344 420.581 101.381 423.289 102.951C425.998 104.49 429.168 105.259 432.799 105.259C435.231 105.259 437.431 104.92 439.401 104.243C441.371 103.535 443.079 102.504 444.525 101.15C445.972 99.7961 447.064 98.1188 447.803 96.1183L463.407 97.8726C462.422 101.997 460.544 105.597 457.775 108.675C455.035 111.722 451.527 114.092 447.249 115.784C442.971 117.446 438.078 118.277 432.569 118.277Z" fill="white"/>
<path d="M346.906 118.139C341.335 118.139 336.349 116.708 331.948 113.846C327.547 110.984 324.069 106.829 321.515 101.381C318.961 95.9338 317.683 89.3169 317.683 81.5304C317.683 73.6516 318.976 67.0039 321.561 61.5872C324.177 56.1398 327.701 52.0311 332.133 49.2612C336.565 46.4606 341.504 45.0602 346.952 45.0602C351.107 45.0602 354.523 45.7681 357.2 47.1838C359.878 48.5688 362.002 50.2461 363.571 52.2158C365.141 54.1547 366.356 55.9859 367.218 57.7094H367.911V22.3472H384.668V116.893H368.234V105.721H367.218C366.356 107.444 365.11 109.275 363.479 111.214C361.848 113.122 359.693 114.754 357.016 116.108C354.338 117.462 350.968 118.139 346.906 118.139ZM351.568 104.428C355.108 104.428 358.124 103.474 360.617 101.566C363.109 99.627 365.002 96.9341 366.295 93.4871C367.587 90.0401 368.234 86.0238 368.234 81.4381C368.234 76.8524 367.587 72.8668 366.295 69.4814C365.033 66.096 363.156 63.4646 360.663 61.5872C358.201 59.7099 355.169 58.7712 351.568 58.7712C347.844 58.7712 344.736 59.7406 342.243 61.6796C339.75 63.6185 337.873 66.296 336.611 69.7122C335.349 73.1284 334.718 77.037 334.718 81.4381C334.718 85.8699 335.349 89.8247 336.611 93.3024C337.904 96.7494 339.796 99.4731 342.289 101.474C344.813 103.443 347.906 104.428 351.568 104.428Z" fill="white"/>
<path d="M273.269 116.892V45.9834H289.473V57.8016H290.211C291.504 53.7083 293.72 50.5537 296.859 48.3378C300.029 46.0911 303.645 44.9678 307.708 44.9678C308.631 44.9678 309.662 45.0139 310.801 45.1063C311.97 45.1678 312.94 45.2755 313.709 45.4294V60.8023C313.001 60.5561 311.878 60.3406 310.339 60.156C308.831 59.9405 307.369 59.8328 305.953 59.8328C302.907 59.8328 300.167 60.4945 297.736 61.8179C295.336 63.1105 293.443 64.911 292.058 67.2192C290.673 69.5274 289.98 72.1896 289.98 75.2057V116.892H273.269Z" fill="white"/>
<path d="M187.729 118.324C183.235 118.324 179.188 117.523 175.587 115.923C172.017 114.292 169.186 111.891 167.093 108.721C165.031 105.551 164 101.643 164 96.9954C164 92.9945 164.739 89.686 166.216 87.07C167.693 84.454 169.709 82.3612 172.263 80.7916C174.818 79.222 177.696 78.0371 180.896 77.2369C184.128 76.4059 187.467 75.8058 190.914 75.4365C195.069 75.0056 198.439 74.6209 201.024 74.2824C203.609 73.913 205.487 73.3591 206.656 72.6204C207.857 71.851 208.457 70.6661 208.457 69.0657V68.7888C208.457 65.311 207.426 62.6181 205.364 60.7099C203.302 58.8018 200.332 57.8477 196.454 57.8477C192.361 57.8477 189.114 58.7402 186.713 60.5253C184.343 62.3103 182.743 64.4185 181.912 66.8498L166.308 64.6339C167.539 60.3252 169.571 56.7244 172.402 53.8314C175.233 50.9076 178.696 48.7225 182.789 47.276C186.882 45.7987 191.406 45.0601 196.362 45.0601C199.778 45.0601 203.179 45.4602 206.564 46.2603C209.949 47.0605 213.042 48.3839 215.843 50.2305C218.644 52.0463 220.89 54.5238 222.583 57.663C224.307 60.8022 225.168 64.7262 225.168 69.4351V116.892H209.103V107.152H208.549C207.533 109.121 206.102 110.968 204.256 112.691C202.44 114.384 200.147 115.754 197.377 116.8C194.638 117.816 191.422 118.324 187.729 118.324ZM192.068 106.044C195.423 106.044 198.331 105.382 200.793 104.059C203.255 102.704 205.148 100.919 206.472 98.7035C207.826 96.4876 208.503 94.0717 208.503 91.4557V83.0998C207.98 83.5307 207.087 83.9308 205.825 84.3001C204.594 84.6694 203.209 84.9926 201.67 85.2696C200.132 85.5466 198.608 85.7928 197.1 86.0082C195.592 86.2236 194.284 86.4083 193.176 86.5622C190.683 86.9007 188.452 87.4547 186.482 88.2241C184.513 88.9935 182.958 90.0707 181.82 91.4557C180.681 92.8098 180.112 94.5641 180.112 96.7184C180.112 99.7961 181.235 102.12 183.482 103.689C185.728 105.259 188.59 106.044 192.068 106.044Z" fill="white"/>
<path d="M258.837 31.6768C258.837 36.9235 254.472 41.1768 249.087 41.1768C243.703 41.1768 239.337 36.9235 239.337 31.6768C239.337 26.4301 243.703 22.1768 249.087 22.1768C254.472 22.1768 258.837 26.4301 258.837 31.6768Z" fill="white"/>
<path d="M257.237 45.6768H240.737V116.677H257.237V45.6768Z" fill="white"/>
</g>
<defs>
<clipPath id="clip0_1_3">
<rect width="539" height="140" fill="white"/>
</clipPath>
</defs>
</svg>
